<?xml version="1.0" standalone="no"?>
<!DOCTYPE svg PUBLIC "-//W3C//DTD SVG 20010904//EN"
 "http://www.w3.org/TR/2001/REC-SVG-20010904/DTD/svg10.dtd">
<svg version="1.0" xmlns="http://www.w3.org/2000/svg"
 width="225.000000pt" height="225.000000pt" viewBox="0 0 225.000000 225.000000"
 preserveAspectRatio="xMidYMid meet">

<g transform="translate(0.000000,225.000000) scale(0.100000,-0.100000)"
fill="#000000" stroke="none">
<path d="M1304 2165 c-2 -88 -50 -155 -191 -268 -204 -163 -212 -226 -52 -390
l70 -72 -45 69 c-25 38 -51 84 -57 104 -26 78 9 155 110 239 135 113 186 190
185 283 0 76 -19 108 -20 35z m13 -47 c-3 -7 -5 -2 -5 12 0 14 2 19 5 13 2 -7
2 -19 0 -25z m-34 -99 c-17 -32 -66 -87 -130 -147 -105 -97 -143 -152 -143
-209 0 -37 17 -88 42 -128 15 -22 11 -20 -16 10 -44 49 -76 112 -76 149 0 56
38 100 202 233 71 58 137 135 139 165 1 7 3 5 6 -4 2 -10 -8 -41 -24 -69z"/>
<path d="M1334 1875 c-87 -43 -139 -86 -164 -136 -34 -65 -25 -113 36 -199 42
-60 48 -84 31 -120 -15 -28 -14 -29 4 -20 29 16 69 82 69 115 0 18 -16 53 -40
90 -48 72 -52 115 -16 164 21 28 99 94 152 128 40 25 -7 11 -72 -22z m-37 -48
c-89 -76 -99 -132 -37 -225 47 -70 50 -104 15 -152 l-25 -34 6 29 c4 23 -1 39
-20 65 -38 51 -76 131 -76 159 0 48 40 110 98 151 66 48 92 53 39 7z"/>
<path d="M1549 1410 c30 -4 52 -16 68 -34 45 -52 22 -115 -67 -185 -29 -23
-49 -41 -45 -41 13 0 110 51 130 68 63 54 74 125 26 173 -27 26 -35 29 -93 28
-61 -1 -62 -2 -19 -9z"/>
<path d="M815 1386 c-22 -7 -55 -21 -74 -30 -28 -15 -31 -20 -20 -31 26 -26
155 -38 359 -32 187 6 294 20 335 46 22 13 20 13 -122 -9 -95 -15 -420 -16
-455 -2 -39 16 -35 30 15 52 48 21 24 26 -38 6z"/>
<path d="M849 1210 l-24 -20 23 -19 c37 -32 123 -44 282 -38 137 4 250 20 250
35 0 4 -9 13 -19 19 -15 9 -34 9 -83 1 -81 -14 -334 -14 -372 1 -18 8 -26 16
-22 26 8 21 -7 19 -35 -5z"/>
<path d="M903 1058 c-13 -6 -23 -19 -23 -29 0 -64 263 -90 430 -43 l62 17 -36
19 c-33 17 -44 18 -123 7 -133 -18 -306 1 -288 32 7 11 6 11 -22 -3z"/>
<path d="M700 951 c-67 -21 -122 -63 -104 -81 37 -37 410 -67 627 -51 267 20
446 77 397 125 -7 7 -11 7 -10 1 5 -25 -3 -34 -40 -49 -179 -72 -890 -64 -890
9 0 15 27 33 69 46 l26 7 -25 0 c-14 0 -36 -3 -50 -7z"/>
<path d="M1631 834 c-113 -52 -383 -85 -641 -78 l-105 3 95 -10 c131 -14 395
-4 512 20 96 19 163 46 187 75 16 19 18 20 -48 -10z"/>
<path d="M848 763 c6 -2 18 -2 25 0 6 3 1 5 -13 5 -14 0 -19 -2 -12 -5z"/>
<path d="M628 387 l-3 -249 -32 -28 c-29 -26 -30 -29 -14 -44 15 -14 20 -14
48 4 63 38 68 59 71 321 l4 237 -36 4 -35 4 -3 -249z m62 26 c0 -115 -5 -225
-9 -247 -11 -43 -56 -96 -83 -96 -25 0 -23 9 10 43 l27 28 3 240 3 239 25 0
24 0 0 -207z"/>
<path d="M834 511 c-40 -10 -54 -19 -54 -36 0 -11 14 -13 70 -8 83 7 110 -8
110 -62 l0 -32 -64 -5 c-106 -9 -155 -65 -129 -145 18 -53 100 -70 161 -33 39
24 42 24 42 5 0 -9 9 -15 25 -15 l25 0 0 136 c0 78 -5 144 -11 156 -21 40 -99
57 -175 39z m125 -12 c19 -7 36 -22 42 -36 5 -13 9 -80 9 -149 0 -125 -7 -146
-34 -108 -11 15 -15 14 -47 -5 -55 -34 -129 -26 -148 15 -14 31 -14 56 0 87
15 32 50 48 124 56 l60 6 3 37 c2 27 -3 43 -18 58 -19 19 -31 22 -91 18 -77
-4 -91 6 -26 20 59 14 89 14 126 1z"/>
<path d="M864 340 c-26 -10 -54 -48 -54 -71 0 -9 9 -28 21 -43 25 -32 59 -34
106 -5 32 20 34 24 31 73 l-3 51 -40 2 c-22 1 -50 -2 -61 -7z m96 -48 c0 -42
-3 -50 -29 -65 -42 -25 -77 -22 -97 8 -34 52 10 104 89 105 l37 0 0 -48z"/>
<path d="M1495 514 c-46 -12 -73 -27 -69 -38 4 -9 25 -12 77 -8 81 5 88 1 105
-58 9 -31 10 -32 11 -9 1 15 -9 39 -21 54 -20 26 -25 27 -90 23 -37 -2 -68 0
-68 4 0 13 51 23 113 23 46 -1 62 -5 80 -23 20 -21 22 -33 25 -157 3 -103 1
-135 -8 -135 -7 0 -18 7 -25 16 -10 15 -15 14 -50 -5 -47 -25 -102 -27 -133
-5 -20 13 -23 23 -20 66 4 65 29 86 118 97 62 8 63 9 18 10 -94 2 -148 -37
-148 -108 0 -52 6 -63 37 -80 33 -17 84 -13 128 9 47 24 45 24 45 5 0 -9 10
-15 26 -15 l26 0 -4 140 c-3 134 -4 141 -28 165 -26 26 -99 40 -145 29z"/>
<path d="M1107 403 c77 -244 64 -218 111 -221 41 -3 43 -2 61 42 27 61 67 192
76 244 7 42 7 42 -23 42 -33 0 -35 -4 -47 -75 -3 -22 -15 -71 -26 -108 -11
-38 -18 -71 -16 -73 4 -4 49 154 62 219 4 19 12 27 26 27 18 0 19 -4 13 -37
-8 -44 -35 -133 -65 -215 -21 -56 -22 -58 -59 -58 l-37 0 -43 143 c-24 78 -45
148 -48 155 -2 7 5 12 21 12 20 0 26 -7 35 -37 27 -104 64 -219 71 -226 5 -5
-5 36 -21 90 -16 54 -35 116 -42 138 -11 36 -15 40 -47 43 l-36 3 34 -108z"/>
<path d="M1500 332 c-31 -15 -35 -22 -38 -59 -2 -33 1 -44 20 -57 31 -22 59
-20 99 7 30 20 34 28 35 67 l2 45 -7 -45 c-5 -39 -11 -48 -43 -65 -29 -15 -42
-17 -65 -10 -24 9 -28 17 -31 52 -4 48 10 60 87 73 42 7 43 8 11 9 -19 0 -51
-7 -70 -17z"/>
</g>
</svg>
