<?xml version="1.0" standalone="no"?>
<!DOCTYPE svg PUBLIC "-//W3C//DTD SVG 20010904//EN"
 "http://www.w3.org/TR/2001/REC-SVG-20010904/DTD/svg10.dtd">
<svg version="1.0" xmlns="http://www.w3.org/2000/svg"
 width="860.000000pt" height="706.000000pt" viewBox="0 0 860.000000 706.000000"
 preserveAspectRatio="xMidYMid meet">

<g transform="translate(0.000000,706.000000) scale(0.100000,-0.100000)"
fill="#000000" stroke="none">
<path d="M4070 6647 c-58 -6 -96 -12 -85 -14 11 -2 92 3 180 11 108 9 136 13
85 13 -41 0 -122 -5 -180 -10z"/>
<path d="M4475 6651 c124 -13 280 -21 220 -11 -27 4 -106 10 -175 13 -100 5
-109 4 -45 -2z"/>
<path d="M3913 6623 c9 -2 25 -2 35 0 9 3 1 5 -18 5 -19 0 -27 -2 -17 -5z"/>
<path d="M4763 6623 c9 -2 25 -2 35 0 9 3 1 5 -18 5 -19 0 -27 -2 -17 -5z"/>
<path d="M3848 6613 c6 -2 18 -2 25 0 6 3 1 5 -13 5 -14 0 -19 -2 -12 -5z"/>
<path d="M4848 6613 c7 -3 16 -2 19 1 4 3 -2 6 -13 5 -11 0 -14 -3 -6 -6z"/>
<path d="M3778 6603 c6 -2 18 -2 25 0 6 3 1 5 -13 5 -14 0 -19 -2 -12 -5z"/>
<path d="M4918 6603 c7 -3 16 -2 19 1 4 3 -2 6 -13 5 -11 0 -14 -3 -6 -6z"/>
<path d="M3705 6590 l-20 -9 20 0 c11 0 27 4 35 9 13 9 13 10 0 9 -8 0 -24 -4
-35 -9z"/>
<path d="M4995 6585 c22 -8 49 -13 60 -13 11 0 -2 6 -30 14 -63 17 -84 16 -30
-1z"/>
<path d="M3648 6573 c6 -2 18 -2 25 0 6 3 1 5 -13 5 -14 0 -19 -2 -12 -5z"/>
<path d="M3608 6563 c7 -3 16 -2 19 1 4 3 -2 6 -13 5 -11 0 -14 -3 -6 -6z"/>
<path d="M5088 6563 c7 -3 16 -2 19 1 4 3 -2 6 -13 5 -11 0 -14 -3 -6 -6z"/>
<path d="M3470 6530 c-30 -10 -51 -18 -47 -19 15 -2 102 22 112 30 13 12 -1
10 -65 -11z"/>
<path d="M5185 6540 c6 -10 64 -24 71 -17 3 2 -13 9 -36 15 -22 5 -38 6 -35 2z"/>
<path d="M3305 6475 c-25 -12 -26 -14 -5 -9 28 7 60 23 45 23 -5 0 -23 -6 -40
-14z"/>
<path d="M5385 6475 c50 -21 83 -26 40 -6 -22 11 -47 19 -55 19 -8 0 -1 -5 15
-13z"/>
<path d="M3165 6421 c-22 -11 -37 -20 -34 -20 10 -1 79 29 79 34 0 7 0 7 -45
-14z"/>
<path d="M5506 6431 c11 -10 74 -32 74 -26 0 5 -68 35 -78 35 -3 0 -2 -4 4 -9z"/>
<path d="M3040 6365 c-25 -13 -41 -24 -37 -25 11 0 87 39 87 45 0 7 0 7 -50
-20z"/>
<path d="M5625 6381 c6 -5 28 -17 50 -26 22 -9 36 -12 30 -6 -5 5 -28 17 -50
26 -22 9 -35 12 -30 6z"/>
<path d="M2925 6309 c-16 -10 -26 -19 -22 -19 11 0 67 29 67 35 0 9 -15 4 -45
-16z"/>
<path d="M5750 6322 c0 -4 14 -13 30 -19 17 -6 30 -10 30 -7 0 2 -13 10 -30
19 -16 9 -30 12 -30 7z"/>
<path d="M2782 6229 c-45 -27 -82 -52 -82 -55 0 -4 15 4 33 15 17 12 53 33 79
46 39 21 69 45 56 45 -2 0 -41 -23 -86 -51z"/>
<path d="M5840 6277 c0 -7 91 -59 95 -55 2 2 -18 16 -46 31 -27 16 -49 26 -49
24z"/>
<path d="M5950 6211 c0 -5 7 -12 16 -15 14 -5 15 -4 4 9 -14 17 -20 19 -20 6z"/>
<path d="M5990 6187 c0 -2 28 -22 63 -45 34 -24 72 -50 85 -59 12 -8 22 -13
22 -10 0 3 -28 25 -62 50 -62 43 -108 71 -108 64z"/>
<path d="M4293 6173 c43 -2 110 -2 150 0 40 1 5 3 -78 3 -82 0 -115 -2 -72 -3z"/>
<path d="M2624 6129 c-59 -41 -94 -71 -64 -53 18 10 111 74 125 86 24 21 -8 4
-61 -33z"/>
<path d="M4098 6163 c12 -2 30 -2 40 0 9 3 -1 5 -23 4 -22 0 -30 -2 -17 -4z"/>
<path d="M4578 6163 c12 -2 30 -2 40 0 9 3 -1 5 -23 4 -22 0 -30 -2 -17 -4z"/>
<path d="M4003 6153 c9 -2 23 -2 30 0 6 3 -1 5 -18 5 -16 0 -22 -2 -12 -5z"/>
<path d="M4688 6153 c6 -2 18 -2 25 0 6 3 1 5 -13 5 -14 0 -19 -2 -12 -5z"/>
<path d="M3865 6139 c-57 -11 -80 -18 -74 -23 2 -2 42 4 89 14 87 18 75 25
-15 9z"/>
<path d="M4835 6129 c49 -10 91 -17 93 -15 5 6 -23 13 -92 25 -97 18 -98 11
-1 -10z"/>
<path d="M4958 6103 c7 -3 16 -2 19 1 4 3 -2 6 -13 5 -11 0 -14 -3 -6 -6z"/>
<path d="M3658 6083 c7 -3 16 -2 19 1 4 3 -2 6 -13 5 -11 0 -14 -3 -6 -6z"/>
<path d="M5070 6075 c53 -17 57 -18 45 -6 -6 5 -28 12 -50 15 l-40 6 45 -15z"/>
<path d="M3600 6070 c-18 -12 -2 -12 25 0 13 6 15 9 5 9 -8 0 -22 -4 -30 -9z"/>
<path d="M6170 6067 c0 -3 17 -17 38 -33 30 -23 33 -24 17 -5 -19 22 -55 46
-55 38z"/>
<path d="M2443 5997 c-43 -35 -100 -85 -128 -111 -27 -26 -5 -10 50 36 56 46
116 95 135 110 19 15 32 27 28 28 -3 0 -41 -29 -85 -63z"/>
<path d="M3480 6033 c-8 -3 -26 -10 -39 -15 -13 -5 -22 -11 -19 -13 2 -3 26 4
54 15 27 10 42 19 34 19 -8 0 -22 -3 -30 -6z"/>
<path d="M5200 6037 c0 -3 20 -12 45 -20 45 -16 65 -14 23 2 -43 16 -68 22
-68 18z"/>
<path d="M6265 5991 c19 -22 55 -46 55 -38 0 3 -17 17 -37 33 -31 23 -34 24
-18 5z"/>
<path d="M3305 5960 c-38 -25 -21 -25 25 0 19 11 28 19 20 20 -8 0 -28 -9 -45
-20z"/>
<path d="M5361 5976 c10 -9 69 -36 69 -32 0 6 -55 36 -66 36 -4 0 -5 -2 -3 -4z"/>
<path d="M6375 5899 c28 -23 101 -93 163 -155 61 -62 112 -108 112 -104 0 11
-251 252 -291 279 -20 14 -13 5 16 -20z"/>
<path d="M3208 5914 c-39 -21 -35 -28 5 -8 37 19 44 24 31 24 -5 -1 -21 -8
-36 -16z"/>
<path d="M5490 5910 c19 -11 40 -19 45 -19 6 0 -6 8 -25 19 -19 11 -39 19 -45
19 -5 0 6 -8 25 -19z"/>
<path d="M3123 5873 c-18 -9 -33 -20 -33 -24 0 -7 58 21 79 38 12 9 -18 0 -46
-14z"/>
<path d="M5580 5870 c8 -6 24 -15 35 -21 16 -8 15 -6 -4 10 -13 12 -28 21 -35
21 -6 0 -4 -5 4 -10z"/>
<path d="M5655 5825 c11 -9 34 -23 50 -31 28 -14 29 -14 10 1 -11 9 -33 23
-50 31 -28 14 -29 14 -10 -1z"/>
<path d="M2230 5810 c-14 -11 -20 -20 -14 -20 6 0 19 9 29 20 23 25 17 25 -15
0z"/>
<path d="M3003 5800 c-34 -20 -47 -38 -15 -21 23 13 58 40 52 41 -3 0 -20 -9
-37 -20z"/>
<path d="M2175 5760 c-10 -11 -13 -20 -8 -20 13 0 38 29 31 35 -3 3 -13 -4
-23 -15z"/>
<path d="M5755 5765 c11 -9 29 -21 40 -26 l20 -10 -20 16 c-11 9 -29 21 -40
26 l-20 10 20 -16z"/>
<path d="M2909 5739 l-24 -20 28 17 c15 9 27 18 27 20 0 8 -8 4 -31 -17z"/>
<path d="M5824 5721 c10 -16 66 -53 66 -44 0 4 -16 18 -36 31 -20 13 -33 19
-30 13z"/>
<path d="M2840 5689 l-35 -31 32 22 c29 19 50 40 41 40 -2 0 -19 -14 -38 -31z"/>
<path d="M5900 5667 c0 -3 17 -17 37 -33 20 -15 33 -23 29 -16 -8 13 -66 56
-66 49z"/>
<path d="M2028 5598 c-63 -73 -129 -156 -143 -179 -11 -17 10 7 128 148 43 51
76 93 74 93 -3 0 -29 -28 -59 -62z"/>
<path d="M2731 5610 c-34 -28 -61 -53 -61 -56 0 -5 38 24 108 83 15 12 24 23
20 23 -4 0 -34 -23 -67 -50z"/>
<path d="M6677 5595 c10 -13 22 -25 27 -25 5 0 -1 11 -14 25 -30 32 -36 32
-13 0z"/>
<path d="M5999 5586 c26 -28 31 -31 31 -17 0 5 -12 17 -27 26 l-28 18 24 -27z"/>
<path d="M6145 5454 c61 -60 112 -108 114 -107 7 5 -37 48 -134 136 -90 80
-90 80 20 -29z"/>
<path d="M2608 5504 c-63 -60 -61 -67 2 -12 27 24 50 46 50 51 0 11 -2 10 -52
-39z"/>
<path d="M6736 5525 c9 -14 21 -25 27 -25 6 0 0 11 -13 25 -13 14 -25 25 -27
25 -2 0 4 -11 13 -25z"/>
<path d="M6805 5440 c10 -11 20 -20 23 -20 3 0 -3 9 -13 20 -10 11 -20 20 -23
20 -3 0 3 -9 13 -20z"/>
<path d="M2520 5425 c-7 -9 -10 -18 -7 -21 3 -3 10 4 17 15 13 25 8 27 -10 6z"/>
<path d="M6848 5380 c9 -16 21 -30 25 -30 5 0 -1 14 -13 30 -27 39 -34 39 -12
0z"/>
<path d="M1820 5330 c-48 -71 -47 -81 2 -12 43 59 51 72 44 72 -3 0 -24 -27
-46 -60z"/>
<path d="M2435 5329 c-28 -29 -43 -48 -34 -43 16 9 95 94 87 94 -2 0 -26 -23
-53 -51z"/>
<path d="M6896 5312 c10 -19 25 -39 33 -45 9 -8 8 0 -5 21 -10 19 -25 39 -33
45 -9 8 -8 0 5 -21z"/>
<path d="M6325 5264 c33 -38 73 -85 88 -104 16 -19 25 -28 21 -20 -18 34 -131
171 -154 185 -8 5 13 -23 45 -61z"/>
<path d="M1746 5220 c-14 -22 -23 -40 -19 -40 5 0 18 18 31 40 29 52 22 52
-12 0z"/>
<path d="M2353 5238 c-11 -13 -24 -30 -28 -38 -8 -16 -6 -14 34 33 14 15 22
27 19 27 -2 0 -14 -10 -25 -22z"/>
<path d="M6954 5223 c9 -17 21 -35 27 -39 13 -8 -1 21 -26 51 -15 19 -15 18
-1 -12z"/>
<path d="M2291 5158 c-14 -23 -14 -23 8 -4 22 20 25 26 13 26 -4 0 -13 -10
-21 -22z"/>
<path d="M1686 5118 c-16 -28 -24 -48 -18 -45 11 8 55 88 50 93 -2 1 -16 -20
-32 -48z"/>
<path d="M7003 5145 c9 -16 23 -39 32 -50 9 -11 7 -2 -6 20 -27 49 -47 72 -26
30z"/>
<path d="M2259 5113 c-29 -35 -41 -53 -36 -53 2 0 17 16 31 35 28 36 31 49 5
18z"/>
<path d="M6466 5085 c34 -45 41 -45 12 0 -13 19 -27 35 -31 35 -4 0 4 -16 19
-35z"/>
<path d="M2185 5013 c-14 -21 -25 -42 -25 -48 0 -9 9 3 45 58 26 41 9 32 -20
-10z"/>
<path d="M7060 5045 c0 -5 9 -23 20 -40 26 -39 26 -25 0 17 -11 18 -20 29 -20
23z"/>
<path d="M1625 5010 c-9 -16 -11 -30 -6 -30 5 0 14 14 20 30 5 17 8 30 6 30
-3 0 -11 -13 -20 -30z"/>
<path d="M6510 5021 c16 -31 32 -36 18 -7 -6 14 -15 26 -20 26 -5 0 -4 -9 2
-19z"/>
<path d="M3245 4984 c-16 -8 -21 -11 -10 -8 11 4 61 10 110 14 l90 7 -80 1
c-52 1 -90 -4 -110 -14z"/>
<path d="M3525 4983 c10 -3 31 -12 45 -20 l25 -15 -25 21 c-14 11 -34 20 -45
20 -20 -1 -20 -1 0 -6z"/>
<path d="M1581 4924 c-12 -26 -20 -49 -17 -52 3 -2 15 17 26 43 27 62 20 68
-9 9z"/>
<path d="M3127 4908 l-52 -51 50 43 c71 61 70 60 61 60 -4 0 -31 -23 -59 -52z"/>
<path d="M6558 4944 c6 -11 18 -28 27 -39 15 -19 15 -18 1 12 -9 17 -21 35
-27 39 -8 4 -8 1 -1 -12z"/>
<path d="M2143 4938 c-15 -20 -25 -38 -20 -38 3 0 12 11 21 25 17 26 16 35 -1
13z"/>
<path d="M7122 4920 c5 -17 14 -33 19 -36 12 -7 11 -2 -7 34 -20 40 -26 41
-12 2z"/>
<path d="M3610 4900 c11 -22 23 -40 25 -40 3 0 -4 18 -15 40 -11 22 -23 40
-25 40 -3 0 4 -18 15 -40z"/>
<path d="M2098 4868 c-22 -34 -52 -95 -41 -83 13 14 65 105 60 105 -3 0 -11
-10 -19 -22z"/>
<path d="M6626 4835 c24 -39 24 -40 24 -28 0 6 -9 21 -21 34 l-20 24 17 -30z"/>
<path d="M3045 4823 l-17 -28 23 22 c12 12 20 25 17 28 -3 3 -13 -7 -23 -22z"/>
<path d="M1522 4790 c-11 -27 -18 -50 -14 -50 8 0 43 92 38 97 -2 2 -13 -19
-24 -47z"/>
<path d="M3650 4819 c0 -14 31 -81 36 -76 3 3 -4 22 -15 44 -11 21 -20 35 -21
32z"/>
<path d="M7170 4819 c0 -14 31 -81 36 -76 3 3 -4 22 -15 44 -11 21 -20 35 -21
32z"/>
<path d="M2995 4754 c-9 -15 -12 -23 -6 -20 11 7 35 46 28 46 -3 0 -12 -12
-22 -26z"/>
<path d="M6682 4725 c12 -24 23 -43 26 -41 4 5 -36 86 -43 86 -3 0 5 -20 17
-45z"/>
<path d="M2026 4738 c-13 -22 -34 -79 -24 -68 2 3 14 24 26 48 23 45 22 57 -2
20z"/>
<path d="M2940 4659 c-12 -23 -20 -43 -18 -45 3 -2 14 17 26 41 27 56 20 60
-8 4z"/>
<path d="M7226 4680 c3 -14 15 -43 25 -65 10 -22 16 -29 12 -15 -3 14 -14 43
-24 65 -11 22 -16 29 -13 15z"/>
<path d="M1465 4645 c-9 -26 -15 -48 -12 -51 3 -3 12 16 21 42 21 62 14 68 -9
9z"/>
<path d="M3710 4676 c0 -12 29 -76 34 -76 3 0 -2 17 -11 38 -16 38 -23 50 -23
38z"/>
<path d="M6721 4645 c0 -5 6 -21 14 -35 8 -14 14 -20 14 -15 0 6 -6 21 -14 35
-8 14 -14 21 -14 15z"/>
<path d="M1964 4604 c-8 -20 -13 -38 -11 -40 2 -2 11 14 20 36 19 50 12 53 -9
4z"/>
<path d="M2892 4533 c-16 -58 -25 -109 -18 -102 9 8 38 130 33 136 -2 2 -9
-14 -15 -34z"/>
<path d="M3764 4550 c9 -32 39 -101 43 -97 2 3 -8 29 -22 58 -14 30 -23 47
-21 39z"/>
<path d="M1916 4480 c-9 -22 -16 -46 -15 -53 0 -6 9 10 20 37 11 27 18 50 16
53 -3 2 -12 -14 -21 -37z"/>
<path d="M6789 4475 c8 -24 17 -42 19 -40 6 5 -18 74 -27 80 -5 2 -1 -15 8
-40z"/>
<path d="M7296 4470 c3 -19 10 -39 15 -44 13 -14 10 2 -7 44 l-14 35 6 -35z"/>
<path d="M1406 4466 c-3 -13 -9 -32 -12 -43 -5 -12 -4 -15 3 -8 11 10 28 75
20 75 -3 0 -8 -11 -11 -24z"/>
<path d="M3810 4435 c0 -5 5 -17 10 -25 5 -8 10 -10 10 -5 0 6 -5 17 -10 25
-5 8 -10 11 -10 5z"/>
<path d="M3831 4385 c0 -5 6 -21 14 -35 8 -14 14 -20 14 -15 0 6 -6 21 -14 35
-8 14 -14 21 -14 15z"/>
<path d="M2863 4290 c0 -47 2 -66 4 -42 2 23 2 61 0 85 -2 23 -4 4 -4 -43z"/>
<path d="M6831 4350 c0 -8 7 -31 15 -50 l14 -35 -6 35 c-7 40 -24 76 -23 50z"/>
<path d="M7331 4344 c0 -11 3 -14 6 -6 3 7 2 16 -1 19 -3 4 -6 -2 -5 -13z"/>
<path d="M1371 4324 c0 -11 3 -14 6 -6 3 7 2 16 -1 19 -3 4 -6 -2 -5 -13z"/>
<path d="M1867 4333 c-2 -4 -7 -24 -11 -43 l-6 -35 15 39 c13 35 15 61 2 39z"/>
<path d="M7342 4305 c0 -29 25 -124 27 -100 0 11 -6 43 -13 70 -8 28 -14 41
-14 30z"/>
<path d="M1350 4240 c-7 -33 -11 -63 -8 -66 3 -2 11 23 17 57 7 33 10 63 8 65
-2 3 -10 -23 -17 -56z"/>
<path d="M3871 4284 c0 -11 3 -14 6 -6 3 7 2 16 -1 19 -3 4 -6 -2 -5 -13z"/>
<path d="M3882 4240 c0 -14 2 -19 5 -12 2 6 2 18 0 25 -3 6 -5 1 -5 -13z"/>
<path d="M6861 4244 c0 -11 3 -14 6 -6 3 7 2 16 -1 19 -3 4 -6 -2 -5 -13z"/>
<path d="M1841 4234 c0 -11 3 -14 6 -6 3 7 2 16 -1 19 -3 4 -6 -2 -5 -13z"/>
<path d="M7371 4164 c0 -11 3 -14 6 -6 3 7 2 16 -1 19 -3 4 -6 -2 -5 -13z"/>
<path d="M1331 4144 c0 -11 3 -14 6 -6 3 7 2 16 -1 19 -3 4 -6 -2 -5 -13z"/>
<path d="M3836 4131 c-9 -16 -39 -57 -67 -91 -28 -34 -49 -63 -47 -65 4 -4 75
83 116 143 13 18 21 36 19 39 -3 3 -13 -9 -21 -26z"/>
<path d="M6886 4130 c4 -19 13 -64 20 -100 6 -36 12 -54 13 -40 1 34 -24 158
-34 168 -4 4 -4 -9 1 -28z"/>
<path d="M1817 4133 c-3 -4 -7 -33 -10 -63 l-6 -55 14 60 c12 56 13 77 2 58z"/>
<path d="M2873 4125 c4 -11 11 -42 18 -68 6 -26 13 -46 15 -44 7 7 -17 111
-28 122 -7 7 -8 3 -5 -10z"/>
<path d="M7382 4100 c0 -14 2 -19 5 -12 2 6 2 18 0 25 -3 6 -5 1 -5 -13z"/>
<path d="M1322 4080 c0 -14 2 -19 5 -12 2 6 2 18 0 25 -3 6 -5 1 -5 -13z"/>
<path d="M7392 4030 c0 -19 2 -27 5 -17 2 9 2 25 0 35 -3 9 -5 1 -5 -18z"/>
<path d="M1312 4000 c0 -19 2 -27 5 -17 2 9 2 25 0 35 -3 9 -5 1 -5 -18z"/>
<path d="M1793 3975 c0 -22 2 -30 4 -17 2 12 2 30 0 40 -3 9 -5 -1 -4 -23z"/>
<path d="M7402 3960 c0 -19 5 -98 12 -175 10 -106 13 -123 14 -70 0 39 -6 117
-13 175 -7 58 -12 89 -13 70z"/>
<path d="M3674 3929 c-20 -22 -23 -28 -8 -19 18 11 50 50 41 50 -2 0 -16 -14
-33 -31z"/>
<path d="M1303 3905 c0 -27 2 -38 4 -22 2 15 2 37 0 50 -2 12 -4 0 -4 -28z"/>
<path d="M2936 3920 c7 -29 43 -100 43 -85 0 6 -11 33 -25 60 -13 28 -21 39
-18 25z"/>
<path d="M6922 3920 c0 -14 2 -19 5 -12 2 6 2 18 0 25 -3 6 -5 1 -5 -13z"/>
<path d="M1782 3895 c0 -16 2 -22 5 -12 2 9 2 23 0 30 -3 6 -5 -1 -5 -18z"/>
<path d="M3627 3847 c-3 -8 -1 -20 4 -28 6 -10 9 -7 9 14 0 29 -5 35 -13 14z"/>
<path d="M1286 3731 c-6 -113 9 -440 21 -451 3 -3 2 32 -1 77 -4 45 -7 174 -7
287 0 113 -1 206 -3 206 -2 0 -6 -54 -10 -119z"/>
<path d="M6933 3805 c0 -22 2 -30 4 -17 2 12 2 30 0 40 -3 9 -5 -1 -4 -23z"/>
<path d="M2981 3815 c0 -5 11 -28 24 -50 14 -22 25 -35 25 -30 0 6 -11 28 -25
50 -13 22 -24 36 -24 30z"/>
<path d="M1773 3750 c0 -30 2 -43 4 -27 2 15 2 39 0 55 -2 15 -4 2 -4 -28z"/>
<path d="M3664 3743 c9 -17 21 -35 27 -39 13 -8 -1 21 -26 51 -15 19 -15 18
-1 -12z"/>
<path d="M3039 3705 c5 -11 17 -29 26 -40 l16 -20 -10 20 c-5 11 -17 29 -26
40 l-16 20 10 -20z"/>
<path d="M3717 3662 c10 -19 24 -39 32 -45 12 -10 12 -9 3 8 -6 11 -21 31 -33
45 l-21 25 19 -33z"/>
<path d="M6943 3600 c0 -30 2 -43 4 -27 2 15 2 39 0 55 -2 15 -4 2 -4 -28z"/>
<path d="M3099 3602 c5 -10 18 -25 28 -33 12 -10 11 -5 -6 19 -24 35 -38 43
-22 14z"/>
<path d="M3778 3573 c11 -16 37 -46 57 -68 23 -25 17 -15 -15 28 -50 65 -82
96 -42 40z"/>
<path d="M7412 3406 c-7 -92 -11 -170 -9 -172 7 -7 30 277 26 311 -2 17 -10
-46 -17 -139z"/>
<path d="M1773 3490 c0 -41 2 -58 4 -37 2 20 2 54 0 75 -2 20 -4 3 -4 -38z"/>
<path d="M3160 3523 c0 -6 8 -17 18 -24 16 -13 16 -13 2 6 -8 11 -16 22 -17
24 -2 2 -3 0 -3 -6z"/>
<path d="M3207 3452 c10 -18 22 -32 26 -32 11 0 -8 34 -28 50 -13 11 -13 8 2
-18z"/>
<path d="M3918 3405 c27 -33 60 -69 73 -80 l24 -20 -21 25 c-12 14 -45 50 -74
80 l-53 55 51 -60z"/>
<path d="M6932 3420 c0 -19 2 -27 5 -17 2 9 2 25 0 35 -3 9 -5 1 -5 -18z"/>
<path d="M3249 3395 c5 -11 22 -33 36 -50 14 -16 21 -21 16 -10 -6 11 -22 34
-37 50 -14 17 -21 21 -15 10z"/>
<path d="M1782 3335 c0 -16 2 -22 5 -12 2 9 2 23 0 30 -3 6 -5 -1 -5 -18z"/>
<path d="M6922 3300 c0 -14 2 -19 5 -12 2 6 2 18 0 25 -3 6 -5 1 -5 -13z"/>
<path d="M3330 3285 c13 -14 25 -25 27 -25 2 0 -4 11 -13 25 -9 14 -21 25 -27
25 -6 0 0 -11 13 -25z"/>
<path d="M4020 3297 c0 -2 24 -23 53 -47 29 -25 41 -32 27 -16 -25 28 -80 71
-80 63z"/>
<path d="M1792 3250 c0 -19 2 -27 5 -17 2 9 2 25 0 35 -3 9 -5 1 -5 -18z"/>
<path d="M5135 3250 c-25 -10 -72 -60 -57 -60 6 0 17 9 25 20 7 11 29 26 48
34 19 9 27 15 19 15 -8 0 -24 -4 -35 -9z"/>
<path d="M1312 3220 c0 -19 2 -27 5 -17 2 9 2 25 0 35 -3 9 -5 1 -5 -18z"/>
<path d="M3379 3225 c35 -50 70 -90 75 -85 2 3 -19 30 -46 60 -28 30 -41 42
-29 25z"/>
<path d="M5229 3235 c18 -8 36 -15 40 -15 13 1 -45 29 -59 29 -8 0 0 -6 19
-14z"/>
<path d="M6902 3177 c-7 -39 -15 -83 -18 -97 -4 -19 -3 -21 4 -10 11 17 37
168 30 175 -2 2 -10 -28 -16 -68z"/>
<path d="M7392 3190 c0 -19 2 -27 5 -17 2 9 2 25 0 35 -3 9 -5 1 -5 -18z"/>
<path d="M1801 3190 c-1 -26 18 -104 24 -98 2 1 -3 30 -10 63 -7 33 -13 49
-14 35z"/>
<path d="M4143 3193 c18 -20 107 -87 107 -80 0 2 -28 25 -62 52 -35 26 -55 39
-45 28z"/>
<path d="M5344 3185 c11 -8 25 -15 30 -15 6 0 2 7 -8 15 -11 8 -25 15 -30 15
-6 0 -2 -7 8 -15z"/>
<path d="M5034 3143 c-15 -20 -23 -33 -16 -29 13 8 56 66 49 66 -3 0 -17 -17
-33 -37z"/>
<path d="M5400 3160 c8 -5 20 -10 25 -10 6 0 3 5 -5 10 -8 5 -19 10 -25 10 -5
0 -3 -5 5 -10z"/>
<path d="M1321 3144 c0 -11 3 -14 6 -6 3 7 2 16 -1 19 -3 4 -6 -2 -5 -13z"/>
<path d="M5460 3135 c0 -5 89 -45 99 -45 8 1 -81 49 -91 50 -5 0 -8 -2 -8 -5z"/>
<path d="M3520 3061 c72 -82 267 -267 348 -330 81 -65 61 -40 -30 35 -46 38
-150 136 -233 218 -82 83 -121 117 -85 77z"/>
<path d="M7381 3114 c0 -11 3 -14 6 -6 3 7 2 16 -1 19 -3 4 -6 -2 -5 -13z"/>
<path d="M4964 3053 c-51 -65 -63 -86 -24 -43 36 40 73 90 67 90 -3 0 -22 -21
-43 -47z"/>
<path d="M1331 3074 c0 -11 3 -14 6 -6 3 7 2 16 -1 19 -3 4 -6 -2 -5 -13z"/>
<path d="M4294 3081 c7 -11 46 -35 46 -28 0 3 -12 12 -26 22 -15 9 -23 12 -20
6z"/>
<path d="M5570 3085 c0 -7 81 -47 86 -43 2 3 -17 14 -41 26 -25 12 -45 20 -45
17z"/>
<path d="M7371 3054 c0 -11 3 -14 6 -6 3 7 2 16 -1 19 -3 4 -6 -2 -5 -13z"/>
<path d="M1341 3025 c0 -11 4 -29 9 -40 8 -18 9 -18 9 5 0 14 -4 32 -9 40 -8
12 -10 12 -9 -5z"/>
<path d="M4370 3036 c0 -7 71 -49 75 -44 2 2 -14 14 -36 26 -21 12 -39 21 -39
18z"/>
<path d="M5675 3031 c3 -5 19 -14 35 -20 17 -5 28 -6 25 -2 -3 5 -19 14 -35
20 -17 5 -28 6 -25 2z"/>
<path d="M7357 2995 c-3 -11 -8 -38 -11 -60 -5 -37 -5 -36 9 10 8 28 13 55 11
60 -1 6 -6 1 -9 -10z"/>
<path d="M6851 2947 c-6 -25 -14 -53 -17 -63 -5 -13 -4 -16 3 -9 11 11 36 105
30 112 -3 2 -9 -16 -16 -40z"/>
<path d="M4480 2975 c0 -7 61 -37 66 -33 2 3 -12 12 -31 21 -19 9 -35 15 -35
12z"/>
<path d="M5794 2971 c3 -5 16 -11 28 -14 22 -6 22 -5 4 8 -22 17 -40 20 -32 6z"/>
<path d="M1851 2954 c0 -11 3 -14 6 -6 3 7 2 16 -1 19 -3 4 -6 -2 -5 -13z"/>
<path d="M4877 2952 c-19 -20 -23 -37 -7 -27 10 6 33 45 27 45 -2 0 -11 -8
-20 -18z"/>
<path d="M1362 2940 c0 -14 2 -19 5 -12 2 6 2 18 0 25 -3 6 -5 1 -5 -13z"/>
<path d="M5857 2939 c7 -7 15 -10 18 -7 3 3 -2 9 -12 12 -14 6 -15 5 -6 -5z"/>
<path d="M1860 2920 c0 -8 5 -22 10 -30 9 -13 10 -13 10 0 0 8 -5 22 -10 30
-9 13 -10 13 -10 0z"/>
<path d="M4595 2916 c11 -7 31 -16 45 -20 19 -5 16 -2 -10 13 -40 23 -65 28
-35 7z"/>
<path d="M5896 2907 c3 -10 9 -15 12 -12 3 3 0 11 -7 18 -10 9 -11 8 -5 -6z"/>
<path d="M1371 2894 c0 -11 3 -14 6 -6 3 7 2 16 -1 19 -3 4 -6 -2 -5 -13z"/>
<path d="M4821 2890 c-13 -11 -19 -20 -14 -20 6 0 18 9 28 20 23 25 17 25 -14
0z"/>
<path d="M7331 2874 c0 -11 3 -14 6 -6 3 7 2 16 -1 19 -3 4 -6 -2 -5 -13z"/>
<path d="M5913 2825 c0 -33 2 -45 4 -27 2 18 2 45 0 60 -2 15 -4 0 -4 -33z"/>
<path d="M4730 2866 c0 -9 39 -13 51 -5 10 6 4 9 -18 9 -18 0 -33 -2 -33 -4z"/>
<path d="M1395 2790 c14 -46 34 -95 34 -86 2 16 -22 91 -32 101 -6 6 -6 1 -2
-15z"/>
<path d="M7307 2793 c-2 -4 -7 -24 -11 -43 l-6 -35 15 39 c13 35 15 61 2 39z"/>
<path d="M1915 2748 c4 -13 11 -27 16 -33 5 -5 4 5 -2 23 -12 36 -24 44 -14
10z"/>
<path d="M5902 2735 c0 -16 2 -22 5 -12 2 9 2 23 0 30 -3 6 -5 -1 -5 -18z"/>
<path d="M6781 2728 c-10 -30 -9 -31 4 -14 8 11 15 26 15 33 0 22 -8 14 -19
-19z"/>
<path d="M3942 2674 c10 -10 20 -15 24 -12 3 4 -5 12 -18 18 -22 12 -22 12 -6
-6z"/>
<path d="M4015 2620 c21 -16 41 -30 44 -30 9 1 -63 59 -73 60 -5 0 8 -13 29
-30z"/>
<path d="M5877 2633 c-2 -4 -7 -24 -11 -43 l-6 -35 15 39 c13 35 15 61 2 39z"/>
<path d="M7241 2584 c-12 -31 -20 -58 -18 -61 2 -2 14 22 26 53 12 31 20 59
17 61 -2 2 -14 -21 -25 -53z"/>
<path d="M1451 2620 c0 -8 6 -26 15 -40 l15 -25 -7 25 c-3 14 -10 32 -15 40
-7 13 -8 13 -8 0z"/>
<path d="M6732 2605 c-17 -37 -14 -45 4 -12 9 16 14 31 11 33 -2 2 -9 -7 -15
-21z"/>
<path d="M1976 2597 c3 -10 9 -15 12 -12 3 3 0 11 -7 18 -10 9 -11 8 -5 -6z"/>
<path d="M4070 2586 c0 -2 16 -13 36 -25 19 -12 32 -16 29 -11 -7 11 -65 43
-65 36z"/>
<path d="M2015 2515 c4 -11 10 -28 12 -37 3 -10 9 -18 14 -18 5 0 2 15 -7 33
-19 38 -30 50 -19 22z"/>
<path d="M4170 2526 c0 -3 14 -12 30 -21 17 -9 30 -13 30 -11 0 3 -13 12 -30
21 -16 9 -30 13 -30 11z"/>
<path d="M6677 2485 c-9 -19 -15 -35 -12 -35 7 0 37 61 33 66 -3 2 -12 -12
-21 -31z"/>
<path d="M5811 2476 l-24 -31 28 27 c16 15 27 29 24 31 -2 3 -15 -10 -28 -27z"/>
<path d="M1515 2453 c16 -38 25 -52 25 -39 0 12 -29 76 -35 76 -3 0 2 -17 10
-37z"/>
<path d="M7186 2445 c-22 -52 -19 -58 5 -12 11 22 18 41 15 44 -3 3 -12 -12
-20 -32z"/>
<path d="M4280 2466 c0 -9 61 -38 67 -32 3 3 -7 10 -22 16 -15 6 -32 13 -36
16 -5 3 -9 3 -9 0z"/>
<path d="M2050 2445 c0 -10 60 -115 66 -115 3 0 -9 26 -27 58 -37 65 -39 68
-39 57z"/>
<path d="M5755 2414 c-19 -15 -22 -21 -9 -15 18 9 52 41 43 41 -2 0 -17 -12
-34 -26z"/>
<path d="M4381 2415 c9 -9 79 -35 79 -30 0 3 -16 13 -35 21 -34 14 -52 18 -44
9z"/>
<path d="M6622 2379 c-12 -21 -21 -39 -18 -39 7 0 49 71 44 75 -2 2 -14 -14
-26 -36z"/>
<path d="M5673 2349 c-43 -30 -58 -48 -25 -30 21 12 79 60 72 60 -3 0 -24 -13
-47 -30z"/>
<path d="M1572 2325 c12 -24 23 -43 26 -41 4 5 -36 86 -43 86 -3 0 5 -20 17
-45z"/>
<path d="M4531 2357 c9 -8 89 -36 89 -32 0 6 -69 35 -83 35 -6 0 -8 -2 -6 -3z"/>
<path d="M7135 2329 c-9 -17 -15 -33 -13 -35 3 -2 12 12 21 31 21 43 13 47 -8
4z"/>
<path d="M6584 2318 c-4 -7 -15 -24 -23 -38 -10 -15 -11 -21 -3 -16 13 7 46
66 38 66 -3 0 -8 -6 -12 -12z"/>
<path d="M2120 2315 c0 -9 91 -145 97 -145 3 0 -2 10 -11 23 -8 12 -29 46 -46
75 -29 48 -40 61 -40 47z"/>
<path d="M4709 2290 c24 -11 46 -18 49 -15 5 5 -26 18 -68 29 -14 3 -5 -3 19
-14z"/>
<path d="M5588 2294 c-38 -20 -36 -28 2 -9 17 9 30 18 30 20 0 7 -1 6 -32 -11z"/>
<path d="M4818 2253 c7 -3 16 -2 19 1 4 3 -2 6 -13 5 -11 0 -14 -3 -6 -6z"/>
<path d="M5465 2235 c-27 -13 -45 -23 -40 -24 6 0 33 11 60 24 28 13 46 23 40
24 -5 0 -32 -11 -60 -24z"/>
<path d="M1610 2245 c0 -5 9 -23 20 -40 26 -39 26 -25 0 17 -11 18 -20 29 -20
23z"/>
<path d="M6534 2238 c-4 -7 -14 -24 -22 -38 -14 -24 -13 -24 3 -5 20 24 37 55
31 55 -3 0 -8 -6 -12 -12z"/>
<path d="M4890 2231 c8 -4 29 -11 45 -15 19 -4 25 -3 15 3 -8 4 -28 11 -45 15
-19 4 -25 3 -15 -3z"/>
<path d="M7076 2211 c-23 -43 -20 -52 5 -12 11 18 18 35 15 38 -2 3 -12 -9
-20 -26z"/>
<path d="M4988 2203 c7 -3 16 -2 19 1 4 3 -2 6 -13 5 -11 0 -14 -3 -6 -6z"/>
<path d="M5368 2203 c7 -3 16 -2 19 1 4 3 -2 6 -13 5 -11 0 -14 -3 -6 -6z"/>
<path d="M5038 2193 c7 -3 16 -2 19 1 4 3 -2 6 -13 5 -11 0 -14 -3 -6 -6z"/>
<path d="M5308 2193 c6 -2 18 -2 25 0 6 3 1 5 -13 5 -14 0 -19 -2 -12 -5z"/>
<path d="M5083 2183 c9 -2 25 -2 35 0 9 3 1 5 -18 5 -19 0 -27 -2 -17 -5z"/>
<path d="M5253 2183 c9 -2 23 -2 30 0 6 3 -1 5 -18 5 -16 0 -22 -2 -12 -5z"/>
<path d="M5163 2173 c15 -2 37 -2 50 0 12 2 0 4 -28 4 -27 0 -38 -2 -22 -4z"/>
<path d="M6464 2133 c-15 -20 -23 -33 -16 -29 13 8 56 66 49 66 -3 0 -17 -17
-33 -37z"/>
<path d="M2236 2134 c14 -26 15 -37 5 -64 -16 -46 -12 -63 4 -20 19 49 18 64
-6 91 l-20 24 17 -31z"/>
<path d="M7038 2138 c-8 -13 -20 -34 -27 -48 -12 -24 -11 -24 4 -5 19 23 48
75 41 75 -2 0 -10 -10 -18 -22z"/>
<path d="M1692 2088 c18 -35 34 -60 36 -56 4 9 -45 105 -58 113 -6 4 4 -22 22
-57z"/>
<path d="M6404 2053 c-15 -20 -23 -33 -16 -29 13 8 56 66 49 66 -3 0 -17 -17
-33 -37z"/>
<path d="M6973 2028 c-20 -26 -26 -41 -15 -34 12 7 36 46 29 46 -3 0 -9 -6
-14 -12z"/>
<path d="M6303 1931 c-40 -44 -73 -83 -73 -87 0 -7 97 97 133 143 35 44 11 22
-60 -56z"/>
<path d="M6926 1955 c-9 -14 -23 -37 -32 -52 l-16 -28 20 24 c24 29 55 81 49
81 -3 0 -12 -11 -21 -25z"/>
<path d="M1681 1909 c-13 -39 -14 -46 -2 -33 9 10 24 64 17 64 -2 0 -9 -14
-15 -31z"/>
<path d="M2190 1915 c-13 -34 -24 -81 -18 -75 8 8 37 100 32 100 -2 0 -9 -11
-14 -25z"/>
<path d="M6833 1822 c-18 -26 -40 -58 -49 -72 l-16 -25 21 25 c40 47 91 120
83 120 -4 0 -22 -22 -39 -48z"/>
<path d="M6125 1744 l-80 -76 83 72 c73 64 89 80 79 80 -1 0 -38 -34 -82 -76z"/>
<path d="M1631 1763 c-7 -21 -15 -45 -18 -53 -4 -10 -2 -12 5 -5 12 12 36 85
30 91 -3 2 -10 -13 -17 -33z"/>
<path d="M2142 1773 c-16 -42 -24 -73 -19 -73 7 0 38 92 33 97 -2 2 -8 -9 -14
-24z"/>
<path d="M6735 1694 c-9 -15 -12 -23 -6 -20 11 7 35 46 28 46 -3 0 -12 -12
-22 -26z"/>
<path d="M5999 1634 l-24 -27 28 18 c15 9 27 21 27 26 0 14 -5 11 -31 -17z"/>
<path d="M6669 1617 c-19 -23 -39 -49 -43 -57 -4 -8 -1 -7 8 4 8 10 29 34 46
53 18 19 30 36 28 39 -2 2 -20 -16 -39 -39z"/>
<path d="M1572 1591 c-7 -19 -10 -36 -7 -39 6 -7 26 49 22 62 -2 6 -9 -5 -15
-23z"/>
<path d="M2080 1596 c-15 -41 -10 -56 6 -17 8 18 13 36 10 39 -3 2 -10 -7 -16
-22z"/>
<path d="M5901 1560 c-67 -51 -86 -69 -61 -55 24 14 130 96 130 101 0 7 -4 5
-69 -46z"/>
<path d="M6532 1468 c-66 -66 -77 -78 -69 -78 1 0 36 34 77 75 41 41 72 75 69
75 -3 0 -38 -32 -77 -72z"/>
<path d="M5747 1454 c-111 -69 -109 -75 3 -9 75 44 75 44 69 48 -2 2 -35 -15
-72 -39z"/>
<path d="M1517 1425 c-9 -25 -12 -43 -7 -40 10 6 32 76 26 82 -2 2 -11 -17
-19 -42z"/>
<path d="M2035 1459 c-22 -62 -35 -103 -34 -113 0 -6 11 18 24 54 13 35 22 66
20 69 -3 2 -7 -2 -10 -10z"/>
<path d="M2965 1445 c11 -9 29 -21 40 -26 l20 -10 -20 16 c-11 9 -29 21 -40
26 l-20 10 20 -16z"/>
<path d="M2775 1420 c-27 -10 -46 -19 -41 -19 14 -2 90 22 101 31 14 12 -4 9
-60 -12z"/>
<path d="M2600 1365 c-36 -13 -60 -24 -55 -24 15 -1 102 26 123 38 28 17 2 11
-68 -14z"/>
<path d="M3070 1381 c0 -8 50 -34 56 -29 1 2 -11 11 -27 20 -16 9 -29 14 -29
9z"/>
<path d="M5545 1339 c-49 -27 -86 -48 -81 -49 13 0 149 70 166 86 19 19 18 18
-85 -37z"/>
<path d="M6380 1329 c-25 -23 -36 -36 -25 -30 28 15 91 71 80 71 -6 -1 -30
-19 -55 -41z"/>
<path d="M2432 1313 c-24 -8 -42 -17 -40 -19 5 -4 108 26 108 32 0 7 -24 3
-68 -13z"/>
<path d="M3180 1322 c0 -8 61 -34 67 -29 1 2 -13 11 -32 20 -19 9 -35 13 -35
9z"/>
<path d="M1466 1274 c-9 -26 -14 -49 -12 -51 2 -2 11 17 20 43 9 26 14 49 12
51 -2 2 -11 -17 -20 -43z"/>
<path d="M1966 1254 c-9 -26 -14 -49 -12 -51 2 -2 11 17 20 43 9 26 14 49 12
51 -2 2 -11 -17 -20 -43z"/>
<path d="M2275 1259 c-27 -10 -38 -17 -23 -14 35 7 78 23 78 30 0 3 -1 5 -2 4
-2 0 -25 -9 -53 -20z"/>
<path d="M3310 1260 c19 -11 40 -19 45 -19 6 0 -6 8 -25 19 -19 11 -39 19 -45
19 -5 0 6 -8 25 -19z"/>
<path d="M5380 1259 c-19 -11 -29 -19 -22 -19 15 0 72 28 72 35 0 8 -13 4 -50
-16z"/>
<path d="M6263 1232 c-34 -26 -62 -51 -63 -55 0 -4 29 16 65 45 57 46 71 59
63 58 -2 0 -31 -22 -65 -48z"/>
<path d="M2100 1205 c-19 -7 -28 -14 -20 -14 8 0 29 6 45 14 39 17 21 18 -25
0z"/>
<path d="M3425 1212 c6 -5 24 -12 40 -16 34 -7 15 7 -25 19 -16 5 -22 4 -15
-3z"/>
<path d="M5230 1199 c-26 -11 -33 -17 -18 -14 36 7 78 23 78 30 0 8 -11 5 -60
-16z"/>
<path d="M1955 1160 c-19 -8 -19 -9 2 -9 12 -1 25 4 28 9 7 12 -2 12 -30 0z"/>
<path d="M3590 1155 c14 -7 43 -16 65 -19 32 -5 28 -3 -20 14 -70 23 -79 24
-45 5z"/>
<path d="M5080 1150 c-30 -10 -51 -18 -47 -19 15 -2 102 22 112 30 13 12 -1
10 -65 -11z"/>
<path d="M1408 1102 c-22 -60 -15 -67 7 -7 10 25 16 47 14 50 -3 2 -12 -17
-21 -43z"/>
<path d="M6123 1124 l-28 -26 33 22 c29 20 39 30 28 30 -3 0 -18 -12 -33 -26z"/>
<path d="M4998 1123 c7 -3 16 -2 19 1 4 3 -2 6 -13 5 -11 0 -14 -3 -6 -6z"/>
<path d="M3800 1101 c8 -5 38 -12 65 -15 49 -5 49 -5 10 4 -77 19 -91 21 -75
11z"/>
<path d="M4880 1100 l-25 -8 25 -1 c14 0 32 4 40 9 13 9 13 10 0 9 -8 -1 -26
-5 -40 -9z"/>
<path d="M6059 1079 l-24 -20 28 17 c15 9 27 18 27 20 0 8 -8 4 -31 -17z"/>
<path d="M4813 1083 c9 -2 23 -2 30 0 6 3 -1 5 -18 5 -16 0 -22 -2 -12 -5z"/>
<path d="M3933 1073 c9 -2 23 -2 30 0 6 3 -1 5 -18 5 -16 0 -22 -2 -12 -5z"/>
<path d="M4758 1073 c6 -2 18 -2 25 0 6 3 1 5 -13 5 -14 0 -19 -2 -12 -5z"/>
<path d="M4018 1063 c6 -2 18 -2 25 0 6 3 1 5 -13 5 -14 0 -19 -2 -12 -5z"/>
<path d="M4678 1063 c6 -2 18 -2 25 0 6 3 1 5 -13 5 -14 0 -19 -2 -12 -5z"/>
<path d="M4138 1048 c22 -9 386 -9 436 0 22 4 -72 7 -207 7 -135 0 -238 -3
-229 -7z"/>
<path d="M5940 1009 c-71 -43 -109 -76 -45 -39 77 46 115 70 115 75 0 7 1 8
-70 -36z"/>
<path d="M1351 939 c-13 -39 -14 -46 -2 -33 9 10 24 64 17 64 -2 0 -9 -14 -15
-31z"/>
<path d="M2881 936 c10 -9 89 -46 89 -41 0 5 -75 45 -86 45 -4 0 -5 -2 -3 -4z"/>
<path d="M5787 924 c-16 -9 -27 -18 -24 -20 3 -3 20 4 38 15 39 24 28 28 -14
5z"/>
<path d="M2765 915 c-39 -17 -21 -18 25 0 19 7 28 14 20 14 -8 0 -28 -6 -45
-14z"/>
<path d="M2981 886 c10 -9 89 -46 89 -41 0 5 -75 45 -86 45 -4 0 -5 -2 -3 -4z"/>
<path d="M5668 864 c-39 -21 -35 -28 5 -8 37 19 44 24 31 24 -5 -1 -21 -8 -36
-16z"/>
<path d="M2581 859 c-13 -5 -22 -12 -19 -14 3 -3 20 1 39 9 37 17 19 21 -20 5z"/>
<path d="M3111 826 c8 -9 99 -45 99 -40 0 2 -21 14 -46 24 -45 20 -62 24 -53
16z"/>
<path d="M1297 776 c-9 -26 -12 -46 -8 -46 7 0 32 82 26 88 -1 2 -10 -17 -18
-42z"/>
<path d="M2415 805 c-40 -18 -16 -19 26 0 19 8 27 14 19 14 -8 0 -28 -6 -45
-14z"/>
<path d="M5533 805 c-18 -8 -33 -17 -33 -20 0 -5 70 21 79 30 9 9 -14 4 -46
-10z"/>
<path d="M2265 758 c-16 -5 -36 -12 -44 -14 -8 -2 -12 -7 -9 -9 2 -3 29 4 59
14 55 20 49 28 -6 9z"/>
<path d="M3299 750 c24 -11 46 -18 49 -15 5 5 -26 18 -68 29 -14 3 -5 -3 19
-14z"/>
<path d="M5380 744 l-25 -15 25 7 c14 3 32 10 40 15 13 7 13 8 0 8 -8 0 -26
-6 -40 -15z"/>
<path d="M2082 701 c-53 -18 -89 -40 -42 -26 63 20 124 44 110 44 -8 0 -39 -9
-68 -18z"/>
<path d="M5275 710 c-13 -6 -15 -9 -5 -9 8 0 22 4 30 9 18 12 2 12 -25 0z"/>
<path d="M3460 695 c19 -7 42 -13 50 -13 8 0 -1 6 -20 13 -19 7 -42 13 -50 13
-8 0 1 -6 20 -13z"/>
<path d="M5195 685 l-30 -14 30 6 c17 3 37 9 45 14 27 15 -11 10 -45 -6z"/>
<path d="M1902 643 c-24 -8 -41 -17 -39 -19 2 -2 28 5 58 15 30 11 47 20 39
19 -8 0 -34 -6 -58 -15z"/>
<path d="M3670 641 c41 -11 77 -18 79 -16 4 5 -65 23 -114 29 -22 3 -6 -3 35
-13z"/>
<path d="M5022 646 c-29 -8 -55 -16 -59 -20 -10 -10 7 -7 82 13 78 21 60 26
-23 7z"/>
<path d="M1242 613 c-15 -48 -8 -55 8 -8 7 20 10 38 8 41 -3 2 -10 -13 -16
-33z"/>
<path d="M3798 613 c7 -3 16 -2 19 1 4 3 -2 6 -13 5 -11 0 -14 -3 -6 -6z"/>
<path d="M4898 613 c6 -2 18 -2 25 0 6 3 1 5 -13 5 -14 0 -19 -2 -12 -5z"/>
<path d="M3863 603 c9 -2 23 -2 30 0 6 3 -1 5 -18 5 -16 0 -22 -2 -12 -5z"/>
<path d="M4838 603 c6 -2 18 -2 25 0 6 3 1 5 -13 5 -14 0 -19 -2 -12 -5z"/>
<path d="M1725 585 c-39 -17 -21 -18 25 0 19 7 28 14 20 14 -8 0 -28 -6 -45
-14z"/>
<path d="M3923 593 c9 -2 25 -2 35 0 9 3 1 5 -18 5 -19 0 -27 -2 -17 -5z"/>
<path d="M4640 586 c-65 -7 -82 -12 -55 -14 22 -1 83 4 135 12 112 16 57 18
-80 2z"/>
<path d="M4035 580 c28 -5 66 -8 85 -8 l35 0 -40 9 c-22 4 -60 8 -85 7 l-45
-1 50 -7z"/>
<path d="M4302 563 c37 -2 100 -2 140 0 40 1 10 3 -67 3 -77 0 -110 -1 -73 -3z"/>
<path d="M1541 529 c-13 -5 -22 -12 -19 -14 3 -3 20 1 39 9 37 17 19 21 -20 5z"/>
<path d="M1187 453 c-9 -25 -16 -48 -14 -50 2 -1 28 6 58 16 30 11 49 20 43
20 -6 1 -25 -4 -43 -10 -40 -14 -44 -10 -30 30 18 51 5 45 -14 -6z"/>
<path d="M1375 475 c-40 -18 -16 -19 26 0 19 8 27 14 19 14 -8 0 -28 -6 -45
-14z"/>
</g>
</svg>
